HIERARCHY
ROOT Hips
{
	OFFSET 0.000000 97.167313 0.000000
	CHANNELS 6 Xposition Yposition Zposition Xrotation Yrotation Zrotation
	JOINT Spine
	{
		OFFSET 0.000000 13.784798 0.064400
		CHANNELS 3 Xrotation Yrotation Zrotation
		JOINT Spine1
		{
			OFFSET 0.000000 12.037903 0.404700
			CHANNELS 3 Xrotation Yrotation Zrotation
			JOINT Spine2
			{
				OFFSET 0.000000 17.795601 0.420200
				CHANNELS 3 Xrotation Yrotation Zrotation
				JOINT Neck
				{
					OFFSET 0.000000 39.131302 11.954600
					CHANNELS 3 Xrotation Yrotation Zrotation
					JOINT Head
					{
						OFFSET 0.000000 14.456192 15.627699
						CHANNELS 3 Xrotation Yrotation Zrotation
						JOINT HeadTop_End
						{
							OFFSET 0.000000 15.703506 7.603401
							CHANNELS 3 Xrotation Yrotation Zrotation
							End Site
							{
								OFFSET 0.000000 17.447403 0.000000
							}
						}
					}
				}
				JOINT LeftShoulder
				{
					OFFSET 17.399500 24.608795 1.168800
					CHANNELS 3 Xrotation Yrotation Zrotation
					JOINT LeftArm
					{
						OFFSET 18.980635 5.765305 1.818600
						CHANNELS 3 Xrotation Yrotation Zrotation
						JOINT LeftForeArm
						{
							OFFSET 49.290169 0.000000 0.000000
							CHANNELS 3 Xrotation Yrotation Zrotation
							JOINT LeftHand
							{
								OFFSET 31.562012 0.000000 0.000000
								CHANNELS 3 Xrotation Yrotation Zrotation
								JOINT LeftHandThumb1
								{
									OFFSET 6.133995 -4.388519 7.076070
									CHANNELS 3 Xrotation Yrotation Zrotation
									JOINT LeftHandThumb2
									{
										OFFSET 6.037666 -3.485840 3.485847
										CHANNELS 3 Xrotation Yrotation Zrotation
										JOINT LeftHandThumb3
										{
											OFFSET 6.496506 -3.750763 3.750761
											CHANNELS 3 Xrotation Yrotation Zrotation
											JOINT LeftHandThumb4
											{
												OFFSET 5.616882 -3.242905 3.242910
												CHANNELS 3 Xrotation Yrotation Zrotation
												End Site
												{
													OFFSET -1.254608 7.132141 0.375429
												}
											}
										}
									}
								}
								JOINT LeftHandPinky1
								{
									OFFSET 18.920792 -0.453171 -11.426712
									CHANNELS 3 Xrotation Yrotation Zrotation
									JOINT LeftHandPinky2
									{
										OFFSET 4.919586 0.000000 0.000000
										CHANNELS 3 Xrotation Yrotation Zrotation
										JOINT LeftHandPinky3
										{
											OFFSET 5.233047 0.000000 0.000000
											CHANNELS 3 Xrotation Yrotation Zrotation
											JOINT LeftHandPinky4
											{
												OFFSET 5.571716 0.000000 0.000000
												CHANNELS 3 Xrotation Yrotation Zrotation
												End Site
												{
													OFFSET -3.459808 4.342407 -0.466164
												}
											}
										}
									}
								}
								JOINT LeftHandRing1
								{
									OFFSET 22.726120 -0.094986 -6.500475
									CHANNELS 3 Xrotation Yrotation Zrotation
									JOINT LeftHandRing2
									{
										OFFSET 6.408615 0.000000 0.000000
										CHANNELS 3 Xrotation Yrotation Zrotation
										JOINT LeftHandRing3
										{
											OFFSET 6.150223 0.000000 0.000000
											CHANNELS 3 Xrotation Yrotation Zrotation
											JOINT LeftHandRing4
											{
												OFFSET 6.145386 0.000000 0.000000
												CHANNELS 3 Xrotation Yrotation Zrotation
												End Site
												{
													OFFSET -3.671402 4.923981 -0.202372
												}
											}
										}
									}
								}
								JOINT LeftHandMiddle1
								{
									OFFSET 23.373947 0.000000 0.000001
									CHANNELS 3 Xrotation Yrotation Zrotation
									JOINT LeftHandMiddle2
									{
										OFFSET 6.996567 0.000000 0.000000
										CHANNELS 3 Xrotation Yrotation Zrotation
										JOINT LeftHandMiddle3
										{
											OFFSET 7.015945 0.000000 0.000000
											CHANNELS 3 Xrotation Yrotation Zrotation
											JOINT LeftHandMiddle4
											{
												OFFSET 7.721573 0.000000 0.000000
												CHANNELS 3 Xrotation Yrotation Zrotation
												End Site
												{
													OFFSET -4.651108 6.158463 0.251582
												}
											}
										}
									}
								}
								JOINT LeftHandIndex1
								{
									OFFSET 21.310577 -0.490082 6.209344
									CHANNELS 3 Xrotation Yrotation Zrotation
									JOINT LeftHandIndex2
									{
										OFFSET 7.536453 0.000000 0.000000
										CHANNELS 3 Xrotation Yrotation Zrotation
										JOINT LeftHandIndex3
										{
											OFFSET 7.512344 0.000000 0.000000
											CHANNELS 3 Xrotation Yrotation Zrotation
											JOINT LeftHandIndex4
											{
												OFFSET 10.212402 0.000000 0.000001
												CHANNELS 3 Xrotation Yrotation Zrotation
												End Site
												{
													OFFSET -5.180801 8.690506 1.388433
												}
											}
										}
									}
								}
							}
						}
					}
				}
				JOINT RightShoulder
				{
					OFFSET -17.399500 24.608795 1.168800
					CHANNELS 3 Xrotation Yrotation Zrotation
					JOINT RightArm
					{
						OFFSET -18.980635 5.765305 1.818600
						CHANNELS 3 Xrotation Yrotation Zrotation
						JOINT RightForeArm
						{
							OFFSET -49.290169 0.000000 0.000000
							CHANNELS 3 Xrotation Yrotation Zrotation
							JOINT RightHand
							{
								OFFSET -31.562012 0.000000 0.000000
								CHANNELS 3 Xrotation Yrotation Zrotation
								JOINT RightHandThumb1
								{
									OFFSET -6.133995 -4.388519 7.076070
									CHANNELS 3 Xrotation Yrotation Zrotation
									JOINT RightHandThumb2
									{
										OFFSET -6.037666 -3.485840 3.485847
										CHANNELS 3 Xrotation Yrotation Zrotation
										JOINT RightHandThumb3
										{
											OFFSET -6.496506 -3.750763 3.750761
											CHANNELS 3 Xrotation Yrotation Zrotation
											JOINT RightHandThumb4
											{
												OFFSET -5.616882 -3.242905 3.242910
												CHANNELS 3 Xrotation Yrotation Zrotation
												End Site
												{
													OFFSET 1.254608 7.132141 0.375429
												}
											}
										}
									}
								}
								JOINT RightHandIndex1
								{
									OFFSET -21.310577 -0.490082 6.209344
									CHANNELS 3 Xrotation Yrotation Zrotation
									JOINT RightHandIndex2
									{
										OFFSET -7.536453 0.000000 0.000000
										CHANNELS 3 Xrotation Yrotation Zrotation
										JOINT RightHandIndex3
										{
											OFFSET -7.512344 0.000000 0.000000
											CHANNELS 3 Xrotation Yrotation Zrotation
											JOINT RightHandIndex4
											{
												OFFSET -10.212402 0.000000 0.000001
												CHANNELS 3 Xrotation Yrotation Zrotation
												End Site
												{
													OFFSET 5.180801 8.690506 1.388433
												}
											}
										}
									}
								}
								JOINT RightHandMiddle1
								{
									OFFSET -23.373947 0.000000 0.000001
									CHANNELS 3 Xrotation Yrotation Zrotation
									JOINT RightHandMiddle2
									{
										OFFSET -6.996567 0.000000 0.000000
										CHANNELS 3 Xrotation Yrotation Zrotation
										JOINT RightHandMiddle3
										{
											OFFSET -7.015945 0.000000 0.000000
											CHANNELS 3 Xrotation Yrotation Zrotation
											JOINT RightHandMiddle4
											{
												OFFSET -7.721573 0.000000 0.000000
												CHANNELS 3 Xrotation Yrotation Zrotation
												End Site
												{
													OFFSET 4.651108 6.158463 0.251582
												}
											}
										}
									}
								}
								JOINT RightHandRing1
								{
									OFFSET -22.726120 -0.094986 -6.500475
									CHANNELS 3 Xrotation Yrotation Zrotation
									JOINT RightHandRing2
									{
										OFFSET -6.408615 0.000000 0.000000
										CHANNELS 3 Xrotation Yrotation Zrotation
										JOINT RightHandRing3
										{
											OFFSET -6.150223 0.000000 0.000000
											CHANNELS 3 Xrotation Yrotation Zrotation
											JOINT RightHandRing4
											{
												OFFSET -6.145386 0.000000 0.000000
												CHANNELS 3 Xrotation Yrotation Zrotation
												End Site
												{
													OFFSET 3.671402 4.923981 -0.202372
												}
											}
										}
									}
								}
								JOINT RightHandPinky1
								{
									OFFSET -18.920792 -0.453171 -11.426712
									CHANNELS 3 Xrotation Yrotation Zrotation
									JOINT RightHandPinky2
									{
										OFFSET -4.919586 0.000000 0.000000
										CHANNELS 3 Xrotation Yrotation Zrotation
										JOINT RightHandPinky3
										{
											OFFSET -5.233047 0.000000 0.000000
											CHANNELS 3 Xrotation Yrotation Zrotation
											JOINT RightHandPinky4
											{
												OFFSET -5.571716 0.000000 0.000000
												CHANNELS 3 Xrotation Yrotation Zrotation
												End Site
												{
													OFFSET 3.459808 4.342407 -0.466164
												}
											}
										}
									}
								}
							}
						}
					}
				}
			}
		}
	}
	JOINT LeftUpLeg
	{
		OFFSET 19.899099 -7.885101 -3.429500
		CHANNELS 3 Xrotation Yrotation Zrotation
		JOINT LeftLeg
		{
			OFFSET 1.745560 -36.997807 10.304700
			CHANNELS 3 Xrotation Yrotation Zrotation
			JOINT LeftFoot
			{
				OFFSET -1.745558 -29.803308 -13.615400
				CHANNELS 3 Xrotation Yrotation Zrotation
				JOINT LeftToeBase
				{
					OFFSET 1.181900 -18.539904 15.226099
					CHANNELS 3 Xrotation Yrotation Zrotation
					JOINT LeftToe_End
					{
						OFFSET -0.863701 1.402801 16.534700
						CHANNELS 3 Xrotation Yrotation Zrotation
						End Site
						{
							OFFSET 0.000000 16.616566 0.000000
						}
					}
				}
			}
		}
	}
	JOINT RightUpLeg
	{
		OFFSET -19.899099 -7.885101 -3.429500
		CHANNELS 3 Xrotation Yrotation Zrotation
		JOINT RightLeg
		{
			OFFSET -1.745560 -36.997807 10.304700
			CHANNELS 3 Xrotation Yrotation Zrotation
			JOINT RightFoot
			{
				OFFSET 1.745558 -29.803308 -13.615400
				CHANNELS 3 Xrotation Yrotation Zrotation
				JOINT RightToeBase
				{
					OFFSET -1.181900 -18.539904 15.226099
					CHANNELS 3 Xrotation Yrotation Zrotation
					JOINT RightToe_End
					{
						OFFSET 0.863701 1.402801 16.534700
						CHANNELS 3 Xrotation Yrotation Zrotation
						End Site
						{
							OFFSET 0.000000 16.616566 0.000000
						}
					}
				}
			}
		}
	}
}
MOTION
Frames: 4
Frame Time: 0.033333
-74.963432 89.662766 166.643433 -7.602351 -67.035950 3.718849 9.435728 -1.433678 -8.632224 -4.021646 0.440971 -0.233325 -4.038559 0.245812 -0.259783 -2.475162 -5.389584 -1.887288 1.212256 -6.166538 1.538012 -0.000000 -0.000000 -0.000000 0.570392 -3.060799 -4.406118 -0.863190 -11.458280 -62.047207 16.815098 -11.332095 -6.478936 -0.081414 -0.854877 6.692905 12.930023 -1.050744 21.156637 -5.498606 26.045251 -7.052577 -8.547320 0.015529 -3.537234 0.000001 0.000001 0.000000 -6.472686 11.328429 -26.390333 10.728456 2.566767 -37.947561 6.428425 3.089083 -18.404073 0.000001 -0.000001 0.000001 -4.969856 10.104672 -15.106493 4.009707 4.047422 -37.592671 2.107772 3.149960 -19.928178 0.000000 0.000000 0.000003 -1.965874 5.683472 -14.315581 0.259202 5.109879 -27.669117 -0.661313 1.152801 -12.389692 0.000001 -0.000001 0.000006 2.379316 2.985688 -5.469116 -2.153849 2.448745 -15.662840 -1.894578 4.837926 -11.445291 -0.000000 0.000001 0.000001 0.482858 0.694447 4.863469 -0.532236 -2.563546 74.255918 17.598618 11.300048 -5.339247 -0.055472 2.566342 4.882599 13.137182 0.916599 -20.809126 -5.323642 -26.314593 7.059174 -8.546793 0.041895 3.537194 0.000000 -0.000001 -0.000000 2.367997 -2.929551 5.887910 -2.164813 -2.444119 16.083340 -1.890365 -4.851758 11.865611 -0.000002 -0.000001 -0.000001 -2.005967 -5.633221 14.350651 0.262526 -5.057913 27.706316 -0.658155 -1.071909 12.428005 -0.000000 0.000001 -0.000008 -4.974076 -10.113694 15.000680 4.015039 -4.052415 37.489020 2.106681 -3.150342 19.823967 -0.000002 -0.000001 0.000002 -6.471837 -11.327390 26.122584 10.716155 -2.559922 37.678124 6.417995 -3.084718 18.135411 0.000003 -0.000000 0.000002 -12.060934 15.426185 -12.880665 28.503493 -11.100481 1.134241 12.314367 -3.481999 8.385139 -23.999396 -4.130307 3.412355 0.000000 -0.000000 0.000000 -29.458394 10.825102 2.268874 51.113130 -5.955110 -1.102486 27.391838 -1.992559 -12.433662 -40.102049 -2.570518 6.599104 -0.000000 -0.000001 0.000000 
-77.725479 90.759537 168.541412 -5.625705 -67.364715 3.994677 9.251368 -1.742519 -7.386149 -4.089443 -0.000861 -0.140290 -4.086179 -0.155926 -0.130834 -2.927660 -5.406126 -1.563026 1.002349 -6.095891 1.587007 0.000000 0.000000 0.000000 0.581371 -3.316431 -3.737210 -2.563194 -12.063374 -61.972731 15.458164 -13.224474 -5.570404 -0.060462 -0.901091 7.259379 12.519118 -1.351175 21.838599 -5.849345 25.510234 -7.043423 -8.504708 0.103556 -3.515666 0.000000 0.000001 0.000001 -6.472499 11.328726 -26.924686 10.730154 2.567905 -38.482051 6.428980 3.090328 -18.938539 0.000000 0.000003 -0.000000 -4.970683 10.104097 -15.314099 4.009525 4.048092 -37.800330 2.108794 3.149689 -20.135934 0.000000 -0.000001 0.000007 -1.966317 5.682881 -14.243581 0.258946 5.109361 -27.597029 -0.661332 1.152387 -12.317619 0.000001 -0.000000 0.000004 2.387726 3.095712 -4.630648 -2.152638 2.448330 -14.823922 -1.893211 4.837616 -10.606421 0.000001 0.000001 0.000001 0.479495 0.577976 4.944280 0.601565 -3.765932 74.125734 16.700789 10.637921 -5.261272 -0.081334 2.705496 5.001790 13.550288 0.623420 -20.122434 -4.970225 -26.849460 7.073933 -8.589966 0.129590 3.559104 0.000001 -0.000000 -0.000001 2.354047 -2.820278 6.726193 -2.165815 -2.444758 16.922233 -1.891513 -4.852214 12.704522 -0.000000 -0.000003 -0.000001 -2.005742 -5.634161 14.422638 0.262865 -5.058079 27.778408 -0.658111 -1.072427 12.500053 0.000002 -0.000002 -0.000009 -4.973903 -10.114325 14.792976 4.015148 -4.051790 37.281365 2.106184 -3.150725 19.616235 0.000000 -0.000002 -0.000003 -6.471836 -11.327269 25.588260 10.714739 -2.558916 37.143723 6.417732 -3.083650 17.601005 0.000001 0.000003 0.000006 -8.906936 16.244350 -12.055915 26.902061 -12.411083 1.087362 10.192712 -3.468348 9.335757 -24.234739 -3.675820 3.825545 0.000000 0.000000 0.000000 -32.392029 8.902414 3.430726 42.616388 -6.620234 -1.075238 28.664275 -2.259835 -12.164049 -34.843028 -1.565187 6.224423 0.000000 0.000001 -0.000000 
-80.495628 91.801422 170.275864 -3.527870 -67.218808 4.420292 9.167822 -2.135486 -6.573748 -4.167629 -0.516185 0.234410 -4.141863 -0.623142 0.284993 -3.639039 -5.431992 -1.423134 0.818690 -6.077253 1.575162 -0.000000 0.000000 0.000000 0.602545 -3.714561 -3.528112 -3.705133 -13.667967 -61.510191 13.104726 -15.186567 -4.867545 -0.018268 -1.038031 8.269132 12.122382 -1.647213 22.496381 -6.187743 24.991688 -7.038049 -8.463439 0.188883 -3.494776 -0.000000 0.000001 -0.000002 -6.472321 11.328967 -27.442568 10.731825 2.568983 -39.000073 6.429525 3.091496 -19.456489 -0.000000 0.000001 0.000001 -4.971475 10.103559 -15.515284 4.009360 4.048689 -38.001619 2.109823 3.149380 -20.337281 -0.000000 -0.000001 0.000003 -1.966782 5.682311 -14.173777 0.258269 5.108844 -27.527117 -0.661336 1.151958 -12.247763 0.000001 0.000000 0.000008 2.392010 3.202487 -3.817746 -2.151267 2.447911 -14.010904 -1.891883 4.837368 -9.793347 -0.000001 0.000003 -0.000003 0.464416 0.020948 5.184578 1.511406 -4.585870 73.622998 16.470996 10.031022 -5.141551 -0.083647 2.695176 4.975611 13.952150 0.343508 -19.453974 -4.625966 -27.367788 7.091831 -8.631892 0.214545 3.580440 0.000002 0.000000 0.000003 2.338938 -2.714708 7.538581 -2.166545 -2.445377 17.735286 -1.892584 -4.852573 13.517588 -0.000000 -0.000001 -0.000001 -2.005467 -5.635130 14.492420 0.263635 -5.058232 27.848324 -0.658125 -1.073028 12.569918 0.000003 -0.000001 -0.000009 -4.973783 -10.114971 14.591652 4.015235 -4.051223 37.080086 2.105794 -3.151296 19.414949 -0.000004 0.000002 -0.000007 -6.471847 -11.327181 25.070414 10.713383 -2.557954 36.625783 6.417509 -3.082608 17.083078 -0.000003 -0.000000 0.000002 -6.076236 16.195914 -11.309823 24.904755 -14.112648 0.951047 8.524587 -2.816073 9.953783 -24.148998 -3.797039 3.691351 0.000000 0.000000 -0.000000 -34.214818 5.841387 3.929329 32.326384 -5.643771 -1.002578 32.873397 -2.263907 -9.754150 -30.038369 -0.077346 2.816512 -0.000000 0.000002 0.000000 
-83.099243 92.799553 171.799927 -1.522576 -66.791744 5.321510 9.301983 -2.630876 -6.830263 -4.385245 -1.029462 0.877790 -4.325465 -1.100429 0.971364 -4.240537 -5.530534 -1.146113 0.688171 -6.032271 1.337703 0.000000 -0.000000 -0.000000 0.619102 -4.179312 -3.522638 -3.453647 -17.723038 -60.648296 7.758038 -16.795534 -4.478213 0.090411 -1.894947 9.432504 11.749740 -1.930646 23.113647 -6.505395 24.502807 -7.036098 -8.424605 0.269342 -3.475180 0.000001 0.000001 -0.000006 -6.472218 11.330725 -27.930576 10.733448 2.569963 -39.488431 6.430069 3.092621 -19.944832 0.000003 0.000001 0.000001 -4.972181 10.102985 -15.704972 4.009213 4.049129 -38.191372 2.110757 3.148940 -20.527114 -0.000001 0.000000 0.000002 -1.967223 5.681738 -14.107962 0.257552 5.108363 -27.461221 -0.661333 1.151557 -12.181920 0.000001 -0.000000 0.000008 2.393245 3.303159 -3.051219 -2.149754 2.447550 -13.244426 -1.890612 4.837131 -9.026857 -0.000000 -0.000000 0.000001 0.449116 -0.878127 5.703952 2.234992 -5.446100 72.843278 16.822553 9.356897 -5.131778 -0.059032 2.394168 4.957418 14.332283 0.083529 -18.821203 -4.299736 -27.856329 7.112047 -8.671513 0.294526 3.600648 -0.000001 0.000000 0.000002 2.323343 -2.615537 8.304474 -2.167043 -2.445998 18.501789 -1.893597 -4.852970 14.284121 -0.000000 0.000000 0.000001 -2.005200 -5.636090 14.558198 0.264433 -5.058445 27.914225 -0.658119 -1.073641 12.635742 0.000002 -0.000001 -0.000007 -4.973730 -10.115708 14.401807 4.015334 -4.050837 36.890316 2.105489 -3.151646 19.225128 0.000001 0.000000 -0.000007 -6.471873 -11.327086 24.582167 10.712127 -2.557029 36.137482 6.417300 -3.081621 16.594788 0.000001 -0.000001 0.000000 -3.065514 16.313181 -11.013638 21.987742 -16.072668 0.673777 7.776302 -2.303276 10.483353 -23.987384 -4.109562 3.408690 0.000000 -0.000001 0.000000 -34.919919 0.623256 3.412783 21.657842 -4.457564 -0.986982 37.626641 -1.367422 -7.990191 -23.677479 0.801695 -1.390085 0.000000 0.000002 -0.000000 
